<svg width="20" height="21" viewBox="0 0 20 21" fill="none" xmlns="http://www.w3.org/2000/svg">
<path d="M5.25255 14.8539C5.83549 15.649 7.05998 15.5267 7.4735 14.6322L9.34983 10.5733L11.892 16.1219C12.3833 17.1943 13.9396 17.1034 14.3022 15.9812L16.7202 8.49661L17.5516 10.1211C17.8768 10.7566 18.6568 11.0087 19.2937 10.6841C19.9306 10.3596 20.1833 9.5814 19.8581 8.94591L17.602 4.53789C17.077 3.51197 15.5705 3.6327 15.2163 4.72908L12.8606 12.0207L10.5328 6.93998C10.0725 5.9354 8.64292 5.93297 8.17925 6.93601L6.04345 11.5562L4.79935 9.85946C4.29474 9.17124 3.27211 9.15092 2.74043 9.81853L0.281139 12.9066C-0.163769 13.4652 -0.0705378 14.2779 0.489377 14.7219C1.0493 15.1658 1.86386 15.0728 2.30877 14.5141L3.71172 12.7525L5.25255 14.8539Z" fill="#6E6D7A"/>
</svg>
