<svg width="14" height="14" viewBox="0 0 14 14" fill="none" xmlns="http://www.w3.org/2000/svg">
<path d="M10.6161 1.18999C9.09592 1.02433 8.12992 1.75058 7 2.94466C5.80708 1.75058 4.90408 1.02433 3.38392 1.18999C1.31658 1.41633 -0.303333 3.77416 0.0484166 5.83333C0.611917 9.13441 3.51575 11.0833 7 12.8333C10.4843 11.0833 13.3881 9.13441 13.9516 5.83333C14.3033 3.77416 12.6834 1.41633 10.6161 1.18999Z" />
<path d="M10.6161 1.18999C9.09592 1.02433 8.12992 1.75058 7 2.94466C5.80708 1.75058 4.90408 1.02433 3.38392 1.18999C1.31658 1.41633 -0.303333 3.77416 0.0484166 5.83333C0.611917 9.13441 3.51575 11.0833 7 12.8333C10.4843 11.0833 13.3881 9.13441 13.9516 5.83333C14.3033 3.77416 12.6834 1.41633 10.6161 1.18999Z" />
</svg>
