<svg width="20" height="21" viewBox="0 0 20 21" fill="none" xmlns="http://www.w3.org/2000/svg">
<path d="M10 11.8292C9.40417 11.8292 8.80833 11.7017 8.25417 11.4458L0 7.63583V17.1667C0 18.0875 0.745833 18.8333 1.66667 18.8333H18.3333C19.2542 18.8333 20 18.0875 20 17.1667V7.63583L11.7458 11.4458C11.1917 11.7017 10.5958 11.8292 10 11.8292ZM18.3333 2.16666H1.66667C0.745833 2.16666 0 2.9125 0 3.83333V5.8L8.9525 9.93166C9.61833 10.2383 10.3825 10.2392 11.0483 9.93166L20 5.8V3.83333C20 2.9125 19.2542 2.16666 18.3333 2.16666Z" fill="#6E6D7A"/>
</svg>
