<svg width="16" height="17" viewBox="0 0 16 17" fill="none" xmlns="http://www.w3.org/2000/svg">
<g clip-path="url(#clip0_403_31)">
<path fill-rule="evenodd" clip-rule="evenodd" d="M10.6002 12.5498C9.49758 13.3568 8.13777 13.8333 6.66667 13.8333C2.98477 13.8333 0 10.8486 0 7.16667C0 3.48477 2.98477 0.5 6.66667 0.5C10.3486 0.5 13.3333 3.48477 13.3333 7.16667C13.3333 8.65637 12.8447 10.0319 12.019 11.1419C12.0265 11.1489 12.0338 11.156 12.0411 11.1633L15.2935 14.4157C15.6841 14.8063 15.6841 15.4394 15.2935 15.83C14.903 16.2205 14.2699 16.2205 13.8793 15.83L10.6269 12.5775C10.6178 12.5684 10.6089 12.5592 10.6002 12.5498ZM11.3333 7.16667C11.3333 9.744 9.244 11.8333 6.66667 11.8333C4.08934 11.8333 2 9.744 2 7.16667C2 4.58934 4.08934 2.5 6.66667 2.5C9.244 2.5 11.3333 4.58934 11.3333 7.16667Z" fill="#9E9EA7"/>
</g>
<defs>
<clipPath id="clip0_403_31">
<rect width="16" height="16" fill="white" transform="translate(0 0.5)"/>
</clipPath>
</defs>
</svg>
