<svg width="20" height="21" viewBox="0 0 20 21" fill="none" xmlns="http://www.w3.org/2000/svg">
<g clip-path="url(#clip0_4_170)">
<path fill-rule="evenodd" clip-rule="evenodd" d="M15 5.50083H18.334C19.254 5.50083 20.001 6.185 20.001 7.02834V11.6117H0V7.02834C0 6.185 0.747 5.50083 1.667 5.50083H5V3.20917C5 1.94667 6.123 0.918335 7.5 0.918335H12.5C13.878 0.918335 15 1.94667 15 3.21V5.50167V5.50083ZM5 13.1392H20.001V18.1392C20.001 19.0592 19.254 19.8058 18.334 19.8058H1.668C0.748 19.8058 0.001 19.0592 0.001 18.1392V13.1392H5.001H5ZM6.333 5.50083H13.667V3.20834C13.6665 3.00566 13.5695 2.81142 13.3975 2.66818C13.2254 2.52494 12.9922 2.44439 12.749 2.44417H7.251C7.00761 2.44439 6.77427 2.52506 6.60217 2.66848C6.43007 2.81189 6.33326 3.00635 6.333 3.20917V5.5V5.50083Z" fill="#6E6D7A"/>
</g>
<defs>
<clipPath id="clip0_4_170">
<rect width="20" height="20" fill="white" transform="translate(0 0.5)"/>
</clipPath>
</defs>
</svg>
